<svg id="svg8" height="512" viewBox="0 0 24 24" width="512" xmlns="http://www.w3.org/2000/svg" xmlns:svg="http://www.w3.org/2000/svg"><g id="g1233" transform="translate(0 -290.65)"><path id="rect1225" d="m45 44c-1.644703 0-3 1.3553-3 3v10c0 1.6447 1.355297 3 3 3h14c1.644703 0 3-1.3553 3-3v-10c0-1.6447-1.355297-3-3-3zm.839844 2h12.035427l-5.570583 5.896484c-.188514.18382-.461667.187683-.654297.0078zm14.152615.664062c.023393 3.399257.007541 6.902471.007541 10.335938 0 .5713-.428703 1-1 1h-14c-.571297 0-1-.4287-1-1v-10c2.200692 2.201263 4.401567 4.454876 6.285156 6.365231.961096.8984 2.485841.879572 3.423828-.04297 2.093469-2.21525 4.189825-4.439107 6.283475-6.658199z" transform="translate(-40 250.65)" font-variant-ligatures="normal" font-variant-position="normal" font-variant-caps="normal" font-variant-numeric="normal" font-variant-alternates="normal" font-variant-east-asian="normal" font-feature-settings="normal" font-variation-settings="normal" text-indent="0" text-align="start" text-decoration-line="none" text-decoration-style="solid" text-decoration-color="rgb(0,0,0)" text-transform="none" text-orientation="mixed" white-space="normal" shape-padding="0" shape-margin="0" inline-size="0" isolation="auto" mix-blend-mode="normal" solid-color="rgb(0,0,0)" solid-opacity="1" vector-effect="none"/></g></svg>