<svg id="Layer_1_copy_2" height="512" viewBox="0 0 32 32" width="512" xmlns="http://www.w3.org/2000/svg" data-name="Layer 1 copy 2"><path d="m25.89941 6.10059a14.06558 14.06558 0 0 0 -19.79882.00015c-8.78178 8.66926-2.43437 24.003 9.89964 23.89915 12.33352.10262 18.68177-15.23016 9.89918-23.8993zm-.74292 17.6419-3.96783-3.96749a6.43158 6.43158 0 0 0 0-7.55l3.96783-3.96747a12.00846 12.00846 0 0 1 0 15.48496zm-12.28491-4.61358c-4.01522-4.23475 2.024-10.274 6.25693-6.25772 4.01513 4.23465-2.02413 10.27387-6.25693 6.25772zm10.87226-12.28691-3.968 3.96759a6.39205 6.39205 0 0 0 -7.55176 0l-3.96792-3.96759a12.031 12.031 0 0 1 15.48768 0zm-16.90033 1.41551 3.96783 3.96749a6.43158 6.43158 0 0 0 0 7.55l-3.96783 3.96749a12.00846 12.00846 0 0 1 0-15.48498zm1.41265 16.90049 3.968-3.96759a6.39205 6.39205 0 0 0 7.55176 0l3.968 3.96759a12.031 12.031 0 0 1 -15.48776 0z" fill="rgb(0,0,0)"/></svg>