<svg id="svg8" height="512" viewBox="0 0 24 24" width="512" xmlns="http://www.w3.org/2000/svg" xmlns:svg="http://www.w3.org/2000/svg"><g id="g1339" transform="translate(0 -290.65)"><path id="path1330" d="m12 292.65039c-5.5110029 0-10 4.489-10 10s4.4889971 10 10 10c5.511003 0 10-4.489 10-10s-4.488997-10-10-10zm0 2c4.430123 0 8 3.56988 8 8s-3.569877 8-8 8c-4.4301226 0-8-3.56988-8-8s3.5698774-8 8-8z" font-variant-ligatures="normal" font-variant-position="normal" font-variant-caps="normal" font-variant-numeric="normal" font-variant-alternates="normal" font-variant-east-asian="normal" font-feature-settings="normal" font-variation-settings="normal" text-indent="0" text-align="start" text-decoration-line="none" text-decoration-style="solid" text-decoration-color="rgb(0,0,0)" text-transform="none" text-orientation="mixed" white-space="normal" shape-padding="0" shape-margin="0" inline-size="0" isolation="auto" mix-blend-mode="normal" solid-color="rgb(0,0,0)" solid-opacity="1" vector-effect="none"/><path id="path1332" d="m12 87a1 1 0 0 0 -1 1v3h-3a1 1 0 0 0 -1 1 1 1 0 0 0 1 1h3v3a1 1 0 0 0 1 1 1 1 0 0 0 1-1v-3h3a1 1 0 0 0 1-1 1 1 0 0 0 -1-1h-3v-3a1 1 0 0 0 -1-1z" transform="translate(0 210.65)" font-variant-ligatures="normal" font-variant-position="normal" font-variant-caps="normal" font-variant-numeric="normal" font-variant-alternates="normal" font-variant-east-asian="normal" font-feature-settings="normal" font-variation-settings="normal" text-indent="0" text-align="start" text-decoration-line="none" text-decoration-style="solid" text-decoration-color="rgb(0,0,0)" text-transform="none" text-orientation="mixed" white-space="normal" shape-padding="0" shape-margin="0" inline-size="0" isolation="auto" mix-blend-mode="normal" solid-color="rgb(0,0,0)" solid-opacity="1" vector-effect="none"/></g></svg>