<svg id="svg8" height="512" viewBox="0 0 24 24" width="512" xmlns="http://www.w3.org/2000/svg" xmlns:svg="http://www.w3.org/2000/svg"><g id="g1628" transform="translate(-120 -330.65)"><path id="rect1199" d="m125 333.65039c-1.6447 0-3 1.3553-3 3v12c0 1.6447 1.3553 3 3 3h14c1.6447 0 3-1.3553 3-3v-9.06641c0-1.60862-1.32497-2.93359-2.93359-2.93359h-6.4375l-.99805-2.38672a1.0001 1.0001 0 0 0 -.92188-.61328zm0 2h5.04297l.99609 2.38477a1.0001 1.0001 0 0 0 .92383.61523h7.10352c.52774 0 .93359.40585.93359.93359v9.06641c0 .5713-.4287 1-1 1h-14c-.5713 0-1-.4287-1-1v-12c0-.5713.4287-1 1-1z" font-variant-ligatures="normal" font-variant-position="normal" font-variant-caps="normal" font-variant-numeric="normal" font-variant-alternates="normal" font-variant-east-asian="normal" font-feature-settings="normal" font-variation-settings="normal" text-indent="0" text-align="start" text-decoration-line="none" text-decoration-style="solid" text-decoration-color="rgb(0,0,0)" text-transform="none" text-orientation="mixed" white-space="normal" shape-padding="0" shape-margin="0" inline-size="0" isolation="auto" mix-blend-mode="normal" solid-color="rgb(0,0,0)" solid-opacity="1" vector-effect="none"/></g></svg>