<svg id="svg8" height="512" viewBox="0 0 24 24" width="512" xmlns="http://www.w3.org/2000/svg" xmlns:svg="http://www.w3.org/2000/svg"><g id="g1314" transform="translate(0 -290.65)"><path id="rect1304" d="m92 82c-2.752703 0-5 2.2473-5 5v4h-.363281c-1.44325 0-2.636719 1.193469-2.636719 2.636719v5.726562c0 1.443249 1.193477 2.636719 2.636719 2.636719h10.726562c1.443242 0 2.636719-1.19347 2.636719-2.636719v-5.726562c0-1.44325-1.19347-2.636719-2.636719-2.636719h-8.363281v-4c0-1.6793 1.320703-3 3-3s3 1.3207 3 3v1.132812c0 .552285.447715 1 1 1s1-.447715 1-1v-1.132812c0-2.7527-2.247297-5-5-5zm-5.363281 11c3.564725.01823 7.142565 0 10.726562 0 .369839 0 .636719.266869.636719.636719v5.726562c0 .36985-.266872.636719-.636719.636719h-10.726562c-.369848 0-.636719-.266869-.636719-.636719v-5.726562c0-.36985.266879-.636719.636719-.636719z" transform="translate(-80 210.65)" font-variant-ligatures="normal" font-variant-position="normal" font-variant-caps="normal" font-variant-numeric="normal" font-variant-alternates="normal" font-variant-east-asian="normal" font-feature-settings="normal" font-variation-settings="normal" text-indent="0" text-align="start" text-decoration-line="none" text-decoration-style="solid" text-decoration-color="rgb(0,0,0)" text-transform="none" text-orientation="mixed" white-space="normal" shape-padding="0" shape-margin="0" inline-size="0" isolation="auto" mix-blend-mode="normal" solid-color="rgb(0,0,0)" solid-opacity="1" vector-effect="none"/></g></svg>