<svg id="svg8" height="512" viewBox="0 0 24 24" width="512" xmlns="http://www.w3.org/2000/svg" xmlns:svg="http://www.w3.org/2000/svg"><g id="g1365" stroke-width="1.003" transform="matrix(.997 0 0 .997 .059 -289.836)"><path id="path1359" d="m11.974609 292.64648c-5.5263118 0-10.0273436 4.50299-10.0273434 10.0293-.0000002 5.52631 4.5010316 10.02734 10.0273434 10.02734 5.526313.00001 10.027344-4.50103 10.027344-10.02734s-4.501031-10.0293-10.027344-10.0293zm0 2.00586c4.442428 0 8.023438 3.58101 8.023438 8.02344s-3.58101 8.02149-8.023438 8.02149c-4.4424268 0-8.0214842-3.57906-8.021484-8.02149-.0000002-4.44243 3.5790572-8.02344 8.021484-8.02344z" font-variant-ligatures="normal" font-variant-position="normal" font-variant-caps="normal" font-variant-numeric="normal" font-variant-alternates="normal" font-variant-east-asian="normal" font-feature-settings="normal" font-variation-settings="normal" text-indent="0" text-align="start" text-decoration-line="none" text-decoration-style="solid" text-decoration-color="rgb(0,0,0)" text-transform="none" text-orientation="mixed" white-space="normal" shape-padding="0" shape-margin="0" inline-size="0" isolation="auto" mix-blend-mode="normal" solid-color="rgb(0,0,0)" solid-opacity="1" vector-effect="none"/><path id="path1361" d="m12 297.64648a1.00278 1.00278 0 0 0 -1.001953 1.00391v5a1.0028802 1.0028802 0 0 0 1.001953 1.00195h4a1.00278 1.00278 0 0 0 1.001953-1.00195 1.00278 1.00278 0 0 0 -1.001953-1.00391h-2.998047v-3.99609a1.00278 1.00278 0 0 0 -1.001953-1.00391z" font-variant-ligatures="normal" font-variant-position="normal" font-variant-caps="normal" font-variant-numeric="normal" font-variant-alternates="normal" font-variant-east-asian="normal" font-feature-settings="normal" font-variation-settings="normal" text-indent="0" text-align="start" text-decoration-line="none" text-decoration-style="solid" text-decoration-color="rgb(0,0,0)" text-transform="none" text-orientation="mixed" white-space="normal" shape-padding="0" shape-margin="0" inline-size="0" isolation="auto" mix-blend-mode="normal" solid-color="rgb(0,0,0)" solid-opacity="1" vector-effect="none"/></g></svg>