<svg id="svg8" height="512" viewBox="0 0 24 24" width="512" xmlns="http://www.w3.org/2000/svg" xmlns:svg="http://www.w3.org/2000/svg"><g id="g1462" transform="translate(0 -290.65)"><path id="rect1445" d="m130.13281 162c-1.16399 0-2.13281.96882-2.13281 2.13281v.86719h-4c-.55228 0-1 .44772-1 1s.44772 1 1 1h1v12c0 1.6447 1.3553 3 3 3h8c1.6447 0 3-1.3553 3-3v-12h1c.55228 0 1-.44772 1-1s-.44772-1-1-1h-4v-.86719c0-1.16399-.96882-2.13281-2.13281-2.13281zm0 2h3.73438c.0906 0 .13281.0422.13281.13281v.86719h-4v-.86719c0-.09059.04222-.13281.13281-.13281zm-3.13281 3h10v12c0 .5713-.4287 1-1 1h-8c-.5713 0-1-.4287-1-1z" transform="translate(-120 130.65)" font-variant-ligatures="normal" font-variant-position="normal" font-variant-caps="normal" font-variant-numeric="normal" font-variant-alternates="normal" font-variant-east-asian="normal" font-feature-settings="normal" font-variation-settings="normal" text-indent="0" text-align="start" text-decoration-line="none" text-decoration-style="solid" text-decoration-color="rgb(0,0,0)" text-transform="none" text-orientation="mixed" white-space="normal" shape-padding="0" shape-margin="0" inline-size="0" isolation="auto" mix-blend-mode="normal" solid-color="rgb(0,0,0)" solid-opacity="1" vector-effect="none"/></g></svg>