<svg id="svg8" height="512" viewBox="0 0 24 24" width="512" xmlns="http://www.w3.org/2000/svg" xmlns:svg="http://www.w3.org/2000/svg"><g id="g1625" transform="translate(-200 -330.659)"><path id="rect1220" d="m211.33398 332.85547-6.9414 5.29297c-.24758.18933-.39273.48325-.39258.79492v10.58984c0 1.6728 1.30204 3.11719 2.9707 3.11719h10.0586c1.66866 0 2.9707-1.44439 2.9707-3.11719v-10.58984c-.00048-.31441-.14878-.61029-.40039-.79883l-7.05859-5.29492c-.34699-.25464-.85834-.23195-1.20704.006zm.61138 2.04883 6.05469 4.53906v10.08984c0 .67355-.45513 1.11719-.9707 1.11719h-10.0586c-.51557 0-.9707-.44364-.9707-1.11719v-10.09375z" font-variant-ligatures="normal" font-variant-position="normal" font-variant-caps="normal" font-variant-numeric="normal" font-variant-alternates="normal" font-variant-east-asian="normal" font-feature-settings="normal" font-variation-settings="normal" text-indent="0" text-align="start" text-decoration-line="none" text-decoration-style="solid" text-decoration-color="rgb(0,0,0)" text-transform="none" text-orientation="mixed" white-space="normal" shape-padding="0" shape-margin="0" inline-size="0" isolation="auto" mix-blend-mode="normal" solid-color="rgb(0,0,0)" solid-opacity="1" vector-effect="none"/></g></svg>