<svg id="svg8" height="512" viewBox="0 0 24 24" width="512" xmlns="http://www.w3.org/2000/svg" xmlns:svg="http://www.w3.org/2000/svg"><g id="g1279" transform="translate(0 -290.65)"><path id="path1259" d="m172 82c-.55228 0-1 .447715-1 1v10.769531l-2.26562-2.449219c-.39152-.424521-.99324-.411628-1.41407-.05469-.40594.375216-.43044 1.008609-.0547 1.414063l3.94727 4.263671c.39226.423961 1.06107.428453 1.45899.0098l4.05273-4.263672c.38088-.400158.36512-1.03335-.0352-1.414062-.40015-.380887-1.03334-.365143-1.41406.03516l-2.27534 2.392543v-10.703125c0-.552285-.44772-1-1-1z" transform="translate(-160 210.65)" font-variant-ligatures="normal" font-variant-position="normal" font-variant-caps="normal" font-variant-numeric="normal" font-variant-alternates="normal" font-variant-east-asian="normal" font-feature-settings="normal" font-variation-settings="normal" text-indent="0" text-align="start" text-decoration-line="none" text-decoration-style="solid" text-decoration-color="rgb(0,0,0)" text-transform="none" text-orientation="mixed" white-space="normal" shape-padding="0" shape-margin="0" inline-size="0" isolation="auto" mix-blend-mode="normal" solid-color="rgb(0,0,0)" solid-opacity="1" vector-effect="none"/><path id="path1267" d="m3 11a1 1 0 0 0 -1 1v7c0 1.644703 1.3552972 3 3 3h14c1.644703 0 3-1.355297 3-3v-7a1 1 0 0 0 -1-1 1 1 0 0 0 -1 1v7c0 .571297-.428703 1-1 1h-14c-.5712972 0-1-.428703-1-1v-7a1 1 0 0 0 -1-1z" transform="translate(0 290.65)" font-variant-ligatures="normal" font-variant-position="normal" font-variant-caps="normal" font-variant-numeric="normal" font-variant-alternates="normal" font-variant-east-asian="normal" font-feature-settings="normal" font-variation-settings="normal" text-indent="0" text-align="start" text-decoration-line="none" text-decoration-style="solid" text-decoration-color="rgb(0,0,0)" text-transform="none" text-orientation="mixed" white-space="normal" shape-padding="0" shape-margin="0" inline-size="0" isolation="auto" mix-blend-mode="normal" solid-color="rgb(0,0,0)" solid-opacity="1" vector-effect="none"/></g></svg>