<?xml version="1.0" encoding="iso-8859-1"?>
<!-- Generator: Adobe Illustrator 19.0.0, SVG Export Plug-In . SVG Version: 6.00 Build 0)  -->
<svg version="1.1" id="Capa_1" xmlns="http://www.w3.org/2000/svg" xmlns:xlink="http://www.w3.org/1999/xlink" x="0px" y="0px"
	 viewBox="0 0 512 512" style="enable-background:new 0 0 512 512;" xml:space="preserve">
<g>
	<g>
		<path d="M494.605,50.446H17.395C7.787,50.446,0,58.233,0,67.841v376.317c0,9.608,7.787,17.395,17.395,17.395h477.209
			c9.608,0,17.395-7.787,17.395-17.395V67.841C512,58.233,504.213,50.446,494.605,50.446z M477.21,426.763H34.79V85.237H477.21
			V426.763z"/>
	</g>
</g>
<g>
	<g>
		<path d="M300.358,130.464c-33.573,0-60.883,27.311-60.883,60.883s27.311,60.883,60.883,60.883s60.883-27.311,60.883-60.883
			S333.931,130.464,300.358,130.464z M300.358,217.441c-14.386,0-26.093-11.707-26.093-26.093s11.707-26.093,26.093-26.093
			s26.093,11.707,26.093,26.093S314.744,217.441,300.358,217.441z"/>
	</g>
</g>
<g>
	<g>
		<path d="M171.674,230.023c-5.978-5.375-14.856-5.955-21.483-1.403L7.55,326.607l19.697,28.673l131.346-90.235l214.211,192.623
			l23.269-25.861L171.674,230.023z"/>
	</g>
</g>
<g>
	<g>
		
			<rect x="276.512" y="285.251" transform="matrix(0.8611 -0.5084 0.5084 0.8611 -99.1472 242.3479)" width="234.982" height="34.79"/>
	</g>
</g>
<g>
</g>
<g>
</g>
<g>
</g>
<g>
</g>
<g>
</g>
<g>
</g>
<g>
</g>
<g>
</g>
<g>
</g>
<g>
</g>
<g>
</g>
<g>
</g>
<g>
</g>
<g>
</g>
<g>
</g>
</svg>
